<svg xmlns="http://www.w3.org/2000/svg" xmlns:xlink="http://www.w3.org/1999/xlink" x="0px" y="0px" viewBox="0 0 60 60" style="enable-background:new 0 0 60 60;" xml:space="preserve">
<g>
	<path d="M55.944,3H6.056C3.819,3,2,4.819,2,7.056v6.993c-1.139,0.227-2,1.233-2,2.438v9.026c0,1.205,0.861,2.211,2,2.438v4.098   c-1.139,0.227-2,1.233-2,2.438v9.026c0,1.205,0.861,2.211,2,2.438v6.993C2,55.181,3.819,57,6.056,57h49.889   C58.181,57,60,55.181,60,52.944V7.056C60,4.819,58.181,3,55.944,3z M2,16.487C2,16.218,2.218,16,2.486,16H7h1c0.552,0,1,0.449,1,1   v8c0,0.551-0.448,1-1,1H7H2.486C2.218,26,2,25.782,2,25.513V16.487z M4,28h3v4H4V28z M9,45.951c1.139-0.227,2-1.233,2-2.438V43v-8   v-0.513c0-1.205-0.861-2.211-2-2.438v-4.098c1.139-0.227,2-1.233,2-2.438V25v-8v-0.513c0-1.205-0.861-2.211-2-2.438V10h44v40H9   V45.951z M2,34.487C2,34.218,2.218,34,2.486,34H7h1c0.552,0,1,0.449,1,1v8c0,0.551-0.448,1-1,1H7H2.486C2.218,44,2,43.782,2,43.513   V34.487z M58,52.944C58,54.078,57.078,55,55.944,55H6.056C4.922,55,4,54.078,4,52.944V46h3v6h48V8H7v6H4V7.056   C4,5.922,4.922,5,6.056,5h49.889C57.078,5,58,5.922,58,7.056V52.944z"></path>
	<path d="M35.506,21.546c-0.009-0.009-0.012-0.022-0.021-0.031s-0.022-0.012-0.031-0.021C33.283,19.336,30.295,18,27,18   s-6.283,1.336-8.454,3.494c-0.009,0.009-0.022,0.012-0.031,0.021s-0.012,0.022-0.021,0.031C16.336,23.717,15,26.705,15,30   s1.336,6.283,3.494,8.454c0.009,0.009,0.012,0.022,0.021,0.031s0.022,0.012,0.031,0.021C20.717,40.664,23.705,42,27,42   s6.283-1.336,8.454-3.494c0.009-0.009,0.022-0.012,0.031-0.021s0.012-0.022,0.021-0.031C37.664,36.283,39,33.295,39,30   S37.664,23.717,35.506,21.546z M35,31h1.949c-0.2,2.008-0.998,3.842-2.211,5.324l-1.374-1.374c-0.391-0.391-1.023-0.391-1.414,0   c-0.391,0.39-0.391,1.023,0,1.414l1.374,1.374c-1.482,1.213-3.316,2.011-5.324,2.211V38c0-0.552-0.447-1-1-1s-1,0.448-1,1v1.949   c-2.008-0.2-3.843-0.998-5.324-2.211l1.374-1.374c0.391-0.391,0.391-1.024,0-1.414c-0.391-0.391-1.023-0.391-1.414,0l-1.374,1.374   c-1.213-1.482-2.011-3.316-2.211-5.324H19c0.553,0,1-0.448,1-1s-0.447-1-1-1h-1.949c0.2-2.008,0.998-3.842,2.211-5.324l1.374,1.374   c0.195,0.195,0.451,0.293,0.707,0.293s0.512-0.098,0.707-0.293c0.391-0.39,0.391-1.023,0-1.414l-1.374-1.374   c1.482-1.213,3.316-2.011,5.324-2.211V22c0,0.552,0.447,1,1,1s1-0.448,1-1v-1.949c2.008,0.2,3.843,0.998,5.324,2.211l-1.374,1.374   c-0.391,0.391-0.391,1.024,0,1.414c0.195,0.195,0.451,0.293,0.707,0.293s0.512-0.098,0.707-0.293l1.374-1.374   c1.213,1.482,2.011,3.316,2.211,5.324H35c-0.553,0-1,0.448-1,1S34.447,31,35,31z"></path>
	<path d="M27,25c-2.757,0-5,2.243-5,5s2.243,5,5,5s5-2.243,5-5S29.757,25,27,25z M27,33c-1.654,0-3-1.346-3-3s1.346-3,3-3   s3,1.346,3,3S28.654,33,27,33z"></path>
	<path d="M51,18c0-0.552-0.447-1-1-1h-2.5c-1.93,0-3.5,1.57-3.5,3.5v19c0,1.93,1.57,3.5,3.5,3.5H50c0.553,0,1-0.448,1-1   s-0.447-1-1-1h-2.5c-0.827,0-1.5-0.673-1.5-1.5v-19c0-0.827,0.673-1.5,1.5-1.5H50C50.553,19,51,18.552,51,18z"></path>
	<path d="M48,21v18c0,0.552,0.447,1,1,1s1-0.448,1-1V21c0-0.552-0.447-1-1-1S48,20.448,48,21z"></path>
</g>
<g>
</g>
<g>
</g>
<g>
</g>
<g>
</g>
<g>
</g>
<g>
</g>
<g>
</g>
<g>
</g>
<g>
</g>
<g>
</g>
<g>
</g>
<g>
</g>
<g>
</g>
<g>
</g>
<g>
</g>
</svg>